# xmcd
#
# Track frame offsets: 
#        150
#        20217
#        43057
#        56305
#        71360
#        89767
#        112382
#        136195
#        149312
#        163365
#        175850
#        191240
#        220792
#
# Disc length: 3339 seconds
#
# Revision: 0
# Processed by: cddbd v1.5.1PL0 Copyright (c) Steve Scherf et al.
# Submitted via: ExactAudioCopy v0.95a3
#
DISCID=cc0d090d
DTITLE=Ulli Kron and The Swinging Blues Maniacs - Full Steam Ahead
DYEAR=1995
DGENRE=Blues
TTITLE0=Full Steam Ahead
TTITLE1=I Wanna Know
TTITLE2=White Wine Boogie
TTITLE3=Rainy Day Blues
TTITLE4=Song For Manuela
TTITLE5=Cryin' For The One I Love
TTITLE6=Mariette's Local Hit
TTITLE7=Nendaz Jump
TTITLE8=Forum Boogie
TTITLE9=The Captain's Boogie Woogie
TTITLE10=Jumpin' With Symphony Sid
TTITLE11=Twist City
TTITLE12=Jivin' In The Valley
EXTD=
EXTT0=
EXTT1=
EXTT2=
EXTT3=
EXTT4=
EXTT5=
EXTT6=
EXTT7=
EXTT8=
EXTT9=
EXTT10=
EXTT11=
EXTT12=
PLAYORDER=
